<mxfile host="app.diagrams.net" agent="Mozilla/5.0 (Windows NT 10.0; Win64; x64) AppleWebKit/537.36 (KHTML, like Gecko) Chrome/136.0.0.0 Safari/537.36" version="26.2.14">
  <diagram name="PÃ¡gina-1" id="Xl_RMS82KrNhimsaXNw5">
    <mxGraphModel grid="1" page="1" gridSize="10" guides="1" tooltips="1" connect="1" arrows="1" fold="1" pageScale="1" pageWidth="827" pageHeight="1169" math="0" shadow="0">
      <root>
        <mxCell id="0" />
        <mxCell id="1" parent="0" />
        <mxCell id="inplF4KOGDcPUROx0T9H-12" style="edgeStyle=orthogonalEdgeStyle;rounded=0;orthogonalLoop=1;jettySize=auto;html=1;" edge="1" parent="1" source="inplF4KOGDcPUROx0T9H-1" target="inplF4KOGDcPUROx0T9H-3">
          <mxGeometry relative="1" as="geometry" />
        </mxCell>
        <mxCell id="inplF4KOGDcPUROx0T9H-13" style="edgeStyle=orthogonalEdgeStyle;rounded=0;orthogonalLoop=1;jettySize=auto;html=1;entryX=0;entryY=0.5;entryDx=0;entryDy=0;" edge="1" parent="1" source="inplF4KOGDcPUROx0T9H-1" target="inplF4KOGDcPUROx0T9H-4">
          <mxGeometry relative="1" as="geometry" />
        </mxCell>
        <mxCell id="inplF4KOGDcPUROx0T9H-17" style="edgeStyle=orthogonalEdgeStyle;rounded=0;orthogonalLoop=1;jettySize=auto;html=1;entryX=0.5;entryY=0;entryDx=0;entryDy=0;" edge="1" parent="1" source="inplF4KOGDcPUROx0T9H-1" target="inplF4KOGDcPUROx0T9H-14">
          <mxGeometry relative="1" as="geometry" />
        </mxCell>
        <mxCell id="inplF4KOGDcPUROx0T9H-1" value="AGENT CONTROLER" style="rounded=0;whiteSpace=wrap;html=1;" vertex="1" parent="1">
          <mxGeometry x="354" y="160" width="120" height="60" as="geometry" />
        </mxCell>
        <mxCell id="inplF4KOGDcPUROx0T9H-15" style="edgeStyle=orthogonalEdgeStyle;rounded=0;orthogonalLoop=1;jettySize=auto;html=1;entryX=0;entryY=0.5;entryDx=0;entryDy=0;exitX=0.5;exitY=1;exitDx=0;exitDy=0;" edge="1" parent="1" source="inplF4KOGDcPUROx0T9H-3" target="inplF4KOGDcPUROx0T9H-14">
          <mxGeometry relative="1" as="geometry" />
        </mxCell>
        <mxCell id="inplF4KOGDcPUROx0T9H-3" value="Tool" style="ellipse;whiteSpace=wrap;html=1;" vertex="1" parent="1">
          <mxGeometry x="10" y="180" width="270" height="230" as="geometry" />
        </mxCell>
        <mxCell id="inplF4KOGDcPUROx0T9H-16" style="edgeStyle=orthogonalEdgeStyle;rounded=0;orthogonalLoop=1;jettySize=auto;html=1;entryX=1;entryY=0.5;entryDx=0;entryDy=0;exitX=0.5;exitY=1;exitDx=0;exitDy=0;" edge="1" parent="1" source="inplF4KOGDcPUROx0T9H-4" target="inplF4KOGDcPUROx0T9H-14">
          <mxGeometry relative="1" as="geometry" />
        </mxCell>
        <mxCell id="inplF4KOGDcPUROx0T9H-4" value="Tool" style="ellipse;whiteSpace=wrap;html=1;" vertex="1" parent="1">
          <mxGeometry x="557" y="180" width="270" height="230" as="geometry" />
        </mxCell>
        <mxCell id="inplF4KOGDcPUROx0T9H-5" value="LLM Traductor de Mensajes" style="rounded=0;whiteSpace=wrap;html=1;" vertex="1" parent="1">
          <mxGeometry x="85" y="330" width="120" height="60" as="geometry" />
        </mxCell>
        <mxCell id="inplF4KOGDcPUROx0T9H-9" value="LLM Inspirado para la escritura" style="rounded=0;whiteSpace=wrap;html=1;" vertex="1" parent="1">
          <mxGeometry x="632" y="330" width="120" height="60" as="geometry" />
        </mxCell>
        <mxCell id="inplF4KOGDcPUROx0T9H-11" style="edgeStyle=orthogonalEdgeStyle;rounded=0;orthogonalLoop=1;jettySize=auto;html=1;" edge="1" parent="1" source="inplF4KOGDcPUROx0T9H-10" target="inplF4KOGDcPUROx0T9H-1">
          <mxGeometry relative="1" as="geometry" />
        </mxCell>
        <mxCell id="inplF4KOGDcPUROx0T9H-10" value="User Input" style="text;html=1;align=center;verticalAlign=middle;whiteSpace=wrap;rounded=0;" vertex="1" parent="1">
          <mxGeometry x="384" y="40" width="60" height="30" as="geometry" />
        </mxCell>
        <mxCell id="inplF4KOGDcPUROx0T9H-14" value="System Output" style="text;html=1;align=center;verticalAlign=middle;whiteSpace=wrap;rounded=0;" vertex="1" parent="1">
          <mxGeometry x="384" y="490" width="60" height="30" as="geometry" />
        </mxCell>
        <mxCell id="inplF4KOGDcPUROx0T9H-18" value="Context: Soy un asistente que decide que herramienta debo usar para resolver mi tarea, si lo que pide el usuario no esta dentro de mis herramientas me despido amablemente" style="text;html=1;align=center;verticalAlign=middle;whiteSpace=wrap;rounded=0;" vertex="1" parent="1">
          <mxGeometry x="196" y="120" width="436" height="30" as="geometry" />
        </mxCell>
        <mxCell id="VUc-xPDgjk1OxAHQRzHZ-1" value="&lt;div style=&quot;color: rgb(204, 204, 204); background-color: rgb(31, 31, 31); font-family: Consolas, &amp;quot;Courier New&amp;quot;, monospace; font-size: 14px; line-height: 19px; white-space: pre;&quot;&gt;&lt;div&gt;&lt;span style=&quot;color: #c586c0;&quot;&gt;from&lt;/span&gt; &lt;span style=&quot;color: #4ec9b0;&quot;&gt;langchain_deepseek&lt;/span&gt; &lt;span style=&quot;color: #c586c0;&quot;&gt;import&lt;/span&gt; &lt;span style=&quot;color: #4ec9b0;&quot;&gt;ChatDeepSeek&lt;/span&gt;&lt;/div&gt;&lt;div&gt;&lt;span style=&quot;color: #c586c0;&quot;&gt;from&lt;/span&gt; &lt;span style=&quot;color: #4ec9b0;&quot;&gt;langchain_core&lt;/span&gt;.&lt;span style=&quot;color: #4ec9b0;&quot;&gt;tools&lt;/span&gt; &lt;span style=&quot;color: #c586c0;&quot;&gt;import&lt;/span&gt; &lt;span style=&quot;color: #dcdcaa;&quot;&gt;tool&lt;/span&gt;&lt;/div&gt;&lt;div&gt;&lt;span style=&quot;color: #c586c0;&quot;&gt;from&lt;/span&gt; &lt;span style=&quot;color: #4ec9b0;&quot;&gt;langgraph&lt;/span&gt;.&lt;span style=&quot;color: #4ec9b0;&quot;&gt;checkpoint&lt;/span&gt;.&lt;span style=&quot;color: #4ec9b0;&quot;&gt;memory&lt;/span&gt; &lt;span style=&quot;color: #c586c0;&quot;&gt;import&lt;/span&gt; &lt;span style=&quot;color: #4ec9b0;&quot;&gt;MemorySaver&lt;/span&gt;&lt;/div&gt;&lt;div&gt;&lt;span style=&quot;color: #c586c0;&quot;&gt;from&lt;/span&gt; &lt;span style=&quot;color: #4ec9b0;&quot;&gt;langgraph&lt;/span&gt;.&lt;span style=&quot;color: #4ec9b0;&quot;&gt;prebuilt&lt;/span&gt; &lt;span style=&quot;color: #c586c0;&quot;&gt;import&lt;/span&gt; &lt;span style=&quot;color: #dcdcaa;&quot;&gt;create_react_agent&lt;/span&gt;&lt;/div&gt;&lt;div&gt;&lt;span style=&quot;color: #c586c0;&quot;&gt;from&lt;/span&gt; &lt;span style=&quot;color: #4ec9b0;&quot;&gt;langchain_core&lt;/span&gt;.&lt;span style=&quot;color: #4ec9b0;&quot;&gt;messages&lt;/span&gt; &lt;span style=&quot;color: #c586c0;&quot;&gt;import&lt;/span&gt; &lt;span style=&quot;color: #4ec9b0;&quot;&gt;HumanMessage&lt;/span&gt;, &lt;span style=&quot;color: #4ec9b0;&quot;&gt;SystemMessage&lt;/span&gt;&lt;/div&gt;&lt;div&gt;&lt;span style=&quot;color: #c586c0;&quot;&gt;from&lt;/span&gt; &lt;span style=&quot;color: #4ec9b0;&quot;&gt;langchain_tavily&lt;/span&gt; &lt;span style=&quot;color: #c586c0;&quot;&gt;import&lt;/span&gt; &lt;span style=&quot;color: #4ec9b0;&quot;&gt;TavilySearch&lt;/span&gt;&lt;/div&gt;&lt;div&gt;&lt;span style=&quot;color: #c586c0;&quot;&gt;from&lt;/span&gt; &lt;span style=&quot;color: #4ec9b0;&quot;&gt;langchain&lt;/span&gt;.&lt;span style=&quot;color: #4ec9b0;&quot;&gt;chat_models&lt;/span&gt; &lt;span style=&quot;color: #c586c0;&quot;&gt;import&lt;/span&gt; &lt;span style=&quot;color: #dcdcaa;&quot;&gt;init_chat_model&lt;/span&gt;&lt;/div&gt;&lt;div&gt;&lt;span style=&quot;color: #c586c0;&quot;&gt;from&lt;/span&gt; &lt;span style=&quot;color: #4ec9b0;&quot;&gt;dotenv&lt;/span&gt; &lt;span style=&quot;color: #c586c0;&quot;&gt;import&lt;/span&gt; &lt;span style=&quot;color: #dcdcaa;&quot;&gt;load_dotenv&lt;/span&gt;&lt;/div&gt;&lt;br&gt;&lt;div&gt;&lt;span style=&quot;color: #dcdcaa;&quot;&gt;load_dotenv&lt;/span&gt;()&lt;/div&gt;&lt;br&gt;&lt;div&gt;&lt;span style=&quot;color: #dcdcaa;&quot;&gt;@&lt;/span&gt;&lt;span style=&quot;color: #dcdcaa;&quot;&gt;tool&lt;/span&gt;&lt;/div&gt;&lt;div&gt;&lt;span style=&quot;color: #569cd6;&quot;&gt;def&lt;/span&gt; &lt;span style=&quot;color: #dcdcaa;&quot;&gt;traductor&lt;/span&gt;(&lt;span style=&quot;color: #9cdcfe;&quot;&gt;text&lt;/span&gt;: &lt;span style=&quot;color: #4ec9b0;&quot;&gt;str&lt;/span&gt;, &lt;span style=&quot;color: #9cdcfe;&quot;&gt;IdInput&lt;/span&gt;: &lt;span style=&quot;color: #4ec9b0;&quot;&gt;str&lt;/span&gt;, &lt;span style=&quot;color: #9cdcfe;&quot;&gt;IdOutput&lt;/span&gt;: &lt;span style=&quot;color: #4ec9b0;&quot;&gt;str&lt;/span&gt;) -&amp;gt; &lt;span style=&quot;color: #4ec9b0;&quot;&gt;str&lt;/span&gt;:&lt;/div&gt;&lt;div&gt;&amp;nbsp; &amp;nbsp; &lt;span style=&quot;color: #ce9178;&quot;&gt;&quot;&quot;&quot;&lt;/span&gt;&lt;/div&gt;&lt;div&gt;&lt;span style=&quot;color: #ce9178;&quot;&gt;&amp;nbsp; &amp;nbsp; Function to translate text from one language to another using the DeepSeek model.&lt;/span&gt;&lt;/div&gt;&lt;div&gt;&lt;span style=&quot;color: #ce9178;&quot;&gt;&amp;nbsp; &amp;nbsp; Args:&lt;/span&gt;&lt;/div&gt;&lt;div&gt;&lt;span style=&quot;color: #ce9178;&quot;&gt;&amp;nbsp; &amp;nbsp; &amp;nbsp; &amp;nbsp; text (str): The text to be translated.&lt;/span&gt;&lt;/div&gt;&lt;div&gt;&lt;span style=&quot;color: #ce9178;&quot;&gt;&amp;nbsp; &amp;nbsp; &amp;nbsp; &amp;nbsp; IdInput (str): The language code of the input text.&lt;/span&gt;&lt;/div&gt;&lt;div&gt;&lt;span style=&quot;color: #ce9178;&quot;&gt;&amp;nbsp; &amp;nbsp; &amp;nbsp; &amp;nbsp; IdOutput (str): The language code of the output text.&quot;&quot;&quot;&lt;/span&gt;&lt;/div&gt;&lt;div&gt;&amp;nbsp; &amp;nbsp; &lt;span style=&quot;color: #6a9955;&quot;&gt;# Example: &quot;es&quot; for Spanish, &quot;en&quot; for English, &quot;fr&quot; for French, etc.&lt;/span&gt;&lt;/div&gt;&lt;div&gt;&amp;nbsp; &amp;nbsp; &lt;span style=&quot;color: #9cdcfe;&quot;&gt;messages&lt;/span&gt; &lt;span style=&quot;color: #d4d4d4;&quot;&gt;=&lt;/span&gt; [&lt;/div&gt;&lt;div&gt;&amp;nbsp; &amp;nbsp; &amp;nbsp; &amp;nbsp; (&lt;/div&gt;&lt;div&gt;&amp;nbsp; &amp;nbsp; &amp;nbsp; &amp;nbsp; &amp;nbsp; &amp;nbsp; &lt;span style=&quot;color: #ce9178;&quot;&gt;&quot;system&quot;&lt;/span&gt;,&lt;/div&gt;&lt;div&gt;&amp;nbsp; &amp;nbsp; &amp;nbsp; &amp;nbsp; &amp;nbsp; &amp;nbsp; &lt;span style=&quot;color: #569cd6;&quot;&gt;f&lt;/span&gt;&lt;span style=&quot;color: #ce9178;&quot;&gt;&quot;You are a helpful assistant that translates &lt;/span&gt;&lt;span style=&quot;color: #569cd6;&quot;&gt;{&lt;/span&gt;&lt;span style=&quot;color: #9cdcfe;&quot;&gt;IdInput&lt;/span&gt;&lt;span style=&quot;color: #569cd6;&quot;&gt;}&lt;/span&gt;&lt;span style=&quot;color: #ce9178;&quot;&gt; to &lt;/span&gt;&lt;span style=&quot;color: #569cd6;&quot;&gt;{&lt;/span&gt;&lt;span style=&quot;color: #9cdcfe;&quot;&gt;IdOutput&lt;/span&gt;&lt;span style=&quot;color: #569cd6;&quot;&gt;}&lt;/span&gt;&lt;span style=&quot;color: #ce9178;&quot;&gt;. Translate the user sentence.&quot;&lt;/span&gt;,&lt;/div&gt;&lt;div&gt;&amp;nbsp; &amp;nbsp; &amp;nbsp; &amp;nbsp; ),&lt;/div&gt;&lt;div&gt;&amp;nbsp; &amp;nbsp; &amp;nbsp; &amp;nbsp; (&lt;span style=&quot;color: #ce9178;&quot;&gt;&quot;human&quot;&lt;/span&gt;, &lt;span style=&quot;color: #9cdcfe;&quot;&gt;text&lt;/span&gt;),&lt;/div&gt;&lt;div&gt;&amp;nbsp; &amp;nbsp; ]&lt;/div&gt;&lt;div&gt;&amp;nbsp; &amp;nbsp; &lt;span style=&quot;color: #9cdcfe;&quot;&gt;ai_msg&lt;/span&gt; &lt;span style=&quot;color: #d4d4d4;&quot;&gt;=&lt;/span&gt; &lt;span style=&quot;color: #9cdcfe;&quot;&gt;llm_traductor&lt;/span&gt;.&lt;span style=&quot;color: #dcdcaa;&quot;&gt;invoke&lt;/span&gt;(&lt;span style=&quot;color: #9cdcfe;&quot;&gt;messages&lt;/span&gt;)&lt;/div&gt;&lt;div&gt;&amp;nbsp; &amp;nbsp; &lt;span style=&quot;color: #c586c0;&quot;&gt;return&lt;/span&gt; &lt;span style=&quot;color: #9cdcfe;&quot;&gt;ai_msg&lt;/span&gt;&lt;/div&gt;&lt;br&gt;&lt;div&gt;&lt;span style=&quot;color: #dcdcaa;&quot;&gt;@&lt;/span&gt;&lt;span style=&quot;color: #dcdcaa;&quot;&gt;tool&lt;/span&gt;&lt;/div&gt;&lt;div&gt;&lt;span style=&quot;color: #569cd6;&quot;&gt;def&lt;/span&gt; &lt;span style=&quot;color: #dcdcaa;&quot;&gt;escritor&lt;/span&gt;(&lt;span style=&quot;color: #9cdcfe;&quot;&gt;text&lt;/span&gt;: &lt;span style=&quot;color: #4ec9b0;&quot;&gt;str&lt;/span&gt;, &lt;span style=&quot;color: #9cdcfe;&quot;&gt;estilo&lt;/span&gt;: &lt;span style=&quot;color: #4ec9b0;&quot;&gt;str&lt;/span&gt;) -&amp;gt; &lt;span style=&quot;color: #4ec9b0;&quot;&gt;str&lt;/span&gt;:&lt;/div&gt;&lt;div&gt;&amp;nbsp; &amp;nbsp; &lt;span style=&quot;color: #ce9178;&quot;&gt;&quot;&quot;&quot;&lt;/span&gt;&lt;/div&gt;&lt;div&gt;&lt;span style=&quot;color: #ce9178;&quot;&gt;&amp;nbsp; &amp;nbsp; Function to write text in a specific style using the DeepSeek model.&lt;/span&gt;&lt;/div&gt;&lt;div&gt;&lt;span style=&quot;color: #ce9178;&quot;&gt;&amp;nbsp; &amp;nbsp; Args:&lt;/span&gt;&lt;/div&gt;&lt;div&gt;&lt;span style=&quot;color: #ce9178;&quot;&gt;&amp;nbsp; &amp;nbsp; &amp;nbsp; &amp;nbsp; text (str): The text to be written.&lt;/span&gt;&lt;/div&gt;&lt;div&gt;&lt;span style=&quot;color: #ce9178;&quot;&gt;&amp;nbsp; &amp;nbsp; &amp;nbsp; &amp;nbsp; estilo (str): The style in which to write the text.&quot;&quot;&quot;&lt;/span&gt;&lt;/div&gt;&lt;div&gt;&amp;nbsp; &amp;nbsp; &lt;span style=&quot;color: #9cdcfe;&quot;&gt;messages&lt;/span&gt; &lt;span style=&quot;color: #d4d4d4;&quot;&gt;=&lt;/span&gt; [&lt;/div&gt;&lt;div&gt;&amp;nbsp; &amp;nbsp; &amp;nbsp; &amp;nbsp; (&lt;/div&gt;&lt;div&gt;&amp;nbsp; &amp;nbsp; &amp;nbsp; &amp;nbsp; &amp;nbsp; &amp;nbsp; &lt;span style=&quot;color: #ce9178;&quot;&gt;&quot;system&quot;&lt;/span&gt;,&lt;/div&gt;&lt;div&gt;&amp;nbsp; &amp;nbsp; &amp;nbsp; &amp;nbsp; &amp;nbsp; &amp;nbsp; &lt;span style=&quot;color: #569cd6;&quot;&gt;f&lt;/span&gt;&lt;span style=&quot;color: #ce9178;&quot;&gt;&quot;You are a helpful assistant that writes the text of the user using &lt;/span&gt;&lt;span style=&quot;color: #569cd6;&quot;&gt;{&lt;/span&gt;&lt;span style=&quot;color: #9cdcfe;&quot;&gt;estilo&lt;/span&gt;&lt;span style=&quot;color: #569cd6;&quot;&gt;}&lt;/span&gt;&lt;span style=&quot;color: #ce9178;&quot;&gt; write style.&quot;&lt;/span&gt;,&lt;/div&gt;&lt;div&gt;&amp;nbsp; &amp;nbsp; &amp;nbsp; &amp;nbsp; ),&lt;/div&gt;&lt;div&gt;&amp;nbsp; &amp;nbsp; &amp;nbsp; &amp;nbsp; (&lt;span style=&quot;color: #ce9178;&quot;&gt;&quot;human&quot;&lt;/span&gt;, &lt;span style=&quot;color: #9cdcfe;&quot;&gt;text&lt;/span&gt;),&lt;/div&gt;&lt;div&gt;&amp;nbsp; &amp;nbsp; ]&lt;/div&gt;&lt;div&gt;&amp;nbsp; &amp;nbsp; &lt;span style=&quot;color: #9cdcfe;&quot;&gt;ai_msg&lt;/span&gt; &lt;span style=&quot;color: #d4d4d4;&quot;&gt;=&lt;/span&gt; &lt;span style=&quot;color: #9cdcfe;&quot;&gt;llm_escritor&lt;/span&gt;.&lt;span style=&quot;color: #dcdcaa;&quot;&gt;invoke&lt;/span&gt;(&lt;span style=&quot;color: #9cdcfe;&quot;&gt;messages&lt;/span&gt;)&lt;/div&gt;&lt;div&gt;&amp;nbsp; &amp;nbsp; &lt;span style=&quot;color: #c586c0;&quot;&gt;return&lt;/span&gt; &lt;span style=&quot;color: #9cdcfe;&quot;&gt;ai_msg&lt;/span&gt;&lt;/div&gt;&lt;br&gt;&lt;div&gt;&lt;span style=&quot;color: #dcdcaa;&quot;&gt;print&lt;/span&gt;(&lt;span style=&quot;color: #dcdcaa;&quot;&gt;traductor&lt;/span&gt;.&lt;span style=&quot;color: #9cdcfe;&quot;&gt;name&lt;/span&gt;)&lt;/div&gt;&lt;div&gt;&lt;span style=&quot;color: #dcdcaa;&quot;&gt;print&lt;/span&gt;(&lt;span style=&quot;color: #dcdcaa;&quot;&gt;traductor&lt;/span&gt;.&lt;span style=&quot;color: #9cdcfe;&quot;&gt;description&lt;/span&gt;)&lt;/div&gt;&lt;div&gt;&lt;span style=&quot;color: #dcdcaa;&quot;&gt;print&lt;/span&gt;(&lt;span style=&quot;color: #dcdcaa;&quot;&gt;traductor&lt;/span&gt;.&lt;span style=&quot;color: #9cdcfe;&quot;&gt;args&lt;/span&gt;)&lt;/div&gt;&lt;br&gt;&lt;div&gt;&lt;span style=&quot;color: #9cdcfe;&quot;&gt;input&lt;/span&gt; &lt;span style=&quot;color: #d4d4d4;&quot;&gt;=&lt;/span&gt; &lt;span style=&quot;color: #dcdcaa;&quot;&gt;input&lt;/span&gt;(&lt;span style=&quot;color: #ce9178;&quot;&gt;&quot;Enter your query: &quot;&lt;/span&gt;)&lt;/div&gt;&lt;br&gt;&lt;div&gt;&lt;span style=&quot;color: #9cdcfe;&quot;&gt;memory&lt;/span&gt; &lt;span style=&quot;color: #d4d4d4;&quot;&gt;=&lt;/span&gt; &lt;span style=&quot;color: #4ec9b0;&quot;&gt;MemorySaver&lt;/span&gt;()&lt;/div&gt;&lt;div&gt;&lt;span style=&quot;color: #9cdcfe;&quot;&gt;model&lt;/span&gt; &lt;span style=&quot;color: #d4d4d4;&quot;&gt;=&lt;/span&gt; &lt;span style=&quot;color: #4ec9b0;&quot;&gt;ChatDeepSeek&lt;/span&gt;(&lt;span style=&quot;color: #9cdcfe;&quot;&gt;model&lt;/span&gt;&lt;span style=&quot;color: #d4d4d4;&quot;&gt;=&lt;/span&gt;&lt;span style=&quot;color: #ce9178;&quot;&gt;&quot;deepseek-chat&quot;&lt;/span&gt;)&lt;/div&gt;&lt;div&gt;&lt;span style=&quot;color: #9cdcfe;&quot;&gt;search&lt;/span&gt; &lt;span style=&quot;color: #d4d4d4;&quot;&gt;=&lt;/span&gt; &lt;span style=&quot;color: #4ec9b0;&quot;&gt;TavilySearch&lt;/span&gt;(&lt;span style=&quot;color: #9cdcfe;&quot;&gt;max_results&lt;/span&gt;&lt;span style=&quot;color: #d4d4d4;&quot;&gt;=&lt;/span&gt;&lt;span style=&quot;color: #b5cea8;&quot;&gt;5&lt;/span&gt;)&lt;/div&gt;&lt;br&gt;&lt;br&gt;&lt;div&gt;&lt;span style=&quot;color: #9cdcfe;&quot;&gt;llm_controler&lt;/span&gt; &lt;span style=&quot;color: #d4d4d4;&quot;&gt;=&lt;/span&gt; &lt;span style=&quot;color: #dcdcaa;&quot;&gt;init_chat_model&lt;/span&gt;(&lt;/div&gt;&lt;div&gt;&amp;nbsp; &amp;nbsp; &lt;span style=&quot;color: #9cdcfe;&quot;&gt;model&lt;/span&gt;&lt;span style=&quot;color: #d4d4d4;&quot;&gt;=&lt;/span&gt;&lt;span style=&quot;color: #ce9178;&quot;&gt;&quot;deepseek-chat&quot;&lt;/span&gt;,&lt;/div&gt;&lt;div&gt;&amp;nbsp; &amp;nbsp; &lt;span style=&quot;color: #9cdcfe;&quot;&gt;model_provider&lt;/span&gt;&lt;span style=&quot;color: #d4d4d4;&quot;&gt;=&lt;/span&gt;&lt;span style=&quot;color: #ce9178;&quot;&gt;&quot;deepseek&quot;&lt;/span&gt;&lt;/div&gt;&lt;div&gt;)&lt;/div&gt;&lt;br&gt;&lt;div&gt;&lt;span style=&quot;color: #9cdcfe;&quot;&gt;llm_traductor&lt;/span&gt; &lt;span style=&quot;color: #d4d4d4;&quot;&gt;=&lt;/span&gt; &lt;span style=&quot;color: #dcdcaa;&quot;&gt;init_chat_model&lt;/span&gt;(&lt;/div&gt;&lt;div&gt;&amp;nbsp; &amp;nbsp; &lt;span style=&quot;color: #9cdcfe;&quot;&gt;model&lt;/span&gt;&lt;span style=&quot;color: #d4d4d4;&quot;&gt;=&lt;/span&gt;&lt;span style=&quot;color: #ce9178;&quot;&gt;&quot;deepseek-chat&quot;&lt;/span&gt;,&lt;/div&gt;&lt;div&gt;&amp;nbsp; &amp;nbsp; &lt;span style=&quot;color: #9cdcfe;&quot;&gt;model_provider&lt;/span&gt;&lt;span style=&quot;color: #d4d4d4;&quot;&gt;=&lt;/span&gt;&lt;span style=&quot;color: #ce9178;&quot;&gt;&quot;deepseek&quot;&lt;/span&gt;&lt;/div&gt;&lt;div&gt;)&lt;/div&gt;&lt;br&gt;&lt;div&gt;&lt;span style=&quot;color: #9cdcfe;&quot;&gt;llm_escritor&lt;/span&gt; &lt;span style=&quot;color: #d4d4d4;&quot;&gt;=&lt;/span&gt; &lt;span style=&quot;color: #dcdcaa;&quot;&gt;init_chat_model&lt;/span&gt;(&lt;/div&gt;&lt;div&gt;&amp;nbsp; &amp;nbsp; &lt;span style=&quot;color: #9cdcfe;&quot;&gt;model&lt;/span&gt;&lt;span style=&quot;color: #d4d4d4;&quot;&gt;=&lt;/span&gt;&lt;span style=&quot;color: #ce9178;&quot;&gt;&quot;deepseek-chat&quot;&lt;/span&gt;,&lt;/div&gt;&lt;div&gt;&amp;nbsp; &amp;nbsp; &lt;span style=&quot;color: #9cdcfe;&quot;&gt;model_provider&lt;/span&gt;&lt;span style=&quot;color: #d4d4d4;&quot;&gt;=&lt;/span&gt;&lt;span style=&quot;color: #ce9178;&quot;&gt;&quot;deepseek&quot;&lt;/span&gt;&lt;/div&gt;&lt;div&gt;)&lt;/div&gt;&lt;br&gt;&lt;div&gt;&lt;span style=&quot;color: #dcdcaa;&quot;&gt;tool&lt;/span&gt; &lt;span style=&quot;color: #d4d4d4;&quot;&gt;=&lt;/span&gt; [&lt;span style=&quot;color: #dcdcaa;&quot;&gt;traductor&lt;/span&gt;, &lt;span style=&quot;color: #dcdcaa;&quot;&gt;escritor&lt;/span&gt;]&lt;/div&gt;&lt;br&gt;&lt;div&gt;&lt;span style=&quot;color: #9cdcfe;&quot;&gt;agente_controlador&lt;/span&gt; &lt;span style=&quot;color: #d4d4d4;&quot;&gt;=&lt;/span&gt; &lt;span style=&quot;color: #dcdcaa;&quot;&gt;create_react_agent&lt;/span&gt;(&lt;/div&gt;&lt;div&gt;&amp;nbsp; &amp;nbsp; &lt;span style=&quot;color: #9cdcfe;&quot;&gt;llm_controler&lt;/span&gt;,&lt;/div&gt;&lt;div&gt;&amp;nbsp; &amp;nbsp; &lt;span style=&quot;color: #dcdcaa;&quot;&gt;tool&lt;/span&gt;&lt;/div&gt;&lt;div&gt;)&lt;/div&gt;&lt;br&gt;&lt;div&gt;&lt;span style=&quot;color: #9cdcfe;&quot;&gt;final_message&lt;/span&gt; &lt;span style=&quot;color: #d4d4d4;&quot;&gt;=&lt;/span&gt; &lt;span style=&quot;color: #569cd6;&quot;&gt;None&lt;/span&gt;&lt;/div&gt;&lt;br&gt;&lt;div&gt;&lt;span style=&quot;color: #c586c0;&quot;&gt;for&lt;/span&gt; &lt;span style=&quot;color: #9cdcfe;&quot;&gt;step&lt;/span&gt; &lt;span style=&quot;color: #c586c0;&quot;&gt;in&lt;/span&gt; &lt;span style=&quot;color: #9cdcfe;&quot;&gt;agente_controlador&lt;/span&gt;.&lt;span style=&quot;color: #dcdcaa;&quot;&gt;stream&lt;/span&gt;(&lt;/div&gt;&lt;div&gt;&amp;nbsp; &amp;nbsp; {&lt;span style=&quot;color: #ce9178;&quot;&gt;&quot;messages&quot;&lt;/span&gt;: &lt;span style=&quot;color: #9cdcfe;&quot;&gt;input&lt;/span&gt;},&lt;/div&gt;&lt;div&gt;&amp;nbsp; &amp;nbsp; &lt;span style=&quot;color: #9cdcfe;&quot;&gt;stream_mode&lt;/span&gt;&lt;span style=&quot;color: #d4d4d4;&quot;&gt;=&lt;/span&gt;&lt;span style=&quot;color: #ce9178;&quot;&gt;&quot;values&quot;&lt;/span&gt;,&lt;/div&gt;&lt;div&gt;):&lt;/div&gt;&lt;div&gt;&amp;nbsp; &amp;nbsp; &lt;span style=&quot;color: #9cdcfe;&quot;&gt;final_message&lt;/span&gt; &lt;span style=&quot;color: #d4d4d4;&quot;&gt;=&lt;/span&gt; &lt;span style=&quot;color: #9cdcfe;&quot;&gt;step&lt;/span&gt;[&lt;span style=&quot;color: #ce9178;&quot;&gt;&quot;messages&quot;&lt;/span&gt;][&lt;span style=&quot;color: #d4d4d4;&quot;&gt;-&lt;/span&gt;&lt;span style=&quot;color: #b5cea8;&quot;&gt;1&lt;/span&gt;] &amp;nbsp;&lt;span style=&quot;color: #6a9955;&quot;&gt;# Se va actualizando hasta el Ãºltimo&lt;/span&gt;&lt;/div&gt;&lt;br&gt;&lt;div&gt;&lt;span style=&quot;color: #6a9955;&quot;&gt;# Mostrar solo el contenido final&lt;/span&gt;&lt;/div&gt;&lt;div&gt;&lt;span style=&quot;color: #c586c0;&quot;&gt;if&lt;/span&gt; &lt;span style=&quot;color: #9cdcfe;&quot;&gt;final_message&lt;/span&gt;:&lt;/div&gt;&lt;div&gt;&amp;nbsp; &amp;nbsp; &lt;span style=&quot;color: #dcdcaa;&quot;&gt;print&lt;/span&gt;(&lt;span style=&quot;color: #9cdcfe;&quot;&gt;final_message&lt;/span&gt;.content)&lt;/div&gt;&lt;br&gt;&lt;/div&gt;" style="rounded=0;whiteSpace=wrap;html=1;" vertex="1" parent="1">
          <mxGeometry x="280" y="1210" width="380" height="450" as="geometry" />
        </mxCell>
        <mxCell id="VUc-xPDgjk1OxAHQRzHZ-22" style="edgeStyle=orthogonalEdgeStyle;rounded=0;orthogonalLoop=1;jettySize=auto;html=1;entryX=0.5;entryY=0;entryDx=0;entryDy=0;" edge="1" parent="1" source="VUc-xPDgjk1OxAHQRzHZ-5" target="VUc-xPDgjk1OxAHQRzHZ-16">
          <mxGeometry relative="1" as="geometry" />
        </mxCell>
        <mxCell id="VUc-xPDgjk1OxAHQRzHZ-5" value="AGENT CONTROLER" style="rounded=0;whiteSpace=wrap;html=1;" vertex="1" parent="1">
          <mxGeometry x="-1576" y="160" width="120" height="60" as="geometry" />
        </mxCell>
        <mxCell id="VUc-xPDgjk1OxAHQRzHZ-7" value="Tool" style="ellipse;whiteSpace=wrap;html=1;" vertex="1" parent="1">
          <mxGeometry x="-540" y="60" width="270" height="230" as="geometry" />
        </mxCell>
        <mxCell id="VUc-xPDgjk1OxAHQRzHZ-46" style="edgeStyle=orthogonalEdgeStyle;rounded=0;orthogonalLoop=1;jettySize=auto;html=1;entryX=1;entryY=0.5;entryDx=0;entryDy=0;exitX=0.5;exitY=1;exitDx=0;exitDy=0;" edge="1" parent="1" source="VUc-xPDgjk1OxAHQRzHZ-9" target="VUc-xPDgjk1OxAHQRzHZ-14">
          <mxGeometry relative="1" as="geometry" />
        </mxCell>
        <mxCell id="VUc-xPDgjk1OxAHQRzHZ-9" value="Tool" style="ellipse;whiteSpace=wrap;html=1;" vertex="1" parent="1">
          <mxGeometry x="-1298" y="280" width="270" height="230" as="geometry" />
        </mxCell>
        <mxCell id="VUc-xPDgjk1OxAHQRzHZ-10" value="LLM Creador de Imagenes" style="rounded=0;whiteSpace=wrap;html=1;" vertex="1" parent="1">
          <mxGeometry x="-465" y="210" width="120" height="60" as="geometry" />
        </mxCell>
        <mxCell id="VUc-xPDgjk1OxAHQRzHZ-11" value="LLM Generador de Respuestas" style="rounded=0;whiteSpace=wrap;html=1;" vertex="1" parent="1">
          <mxGeometry x="-1223" y="430" width="120" height="60" as="geometry" />
        </mxCell>
        <mxCell id="VUc-xPDgjk1OxAHQRzHZ-12" style="edgeStyle=orthogonalEdgeStyle;rounded=0;orthogonalLoop=1;jettySize=auto;html=1;" edge="1" parent="1" source="VUc-xPDgjk1OxAHQRzHZ-13" target="VUc-xPDgjk1OxAHQRzHZ-5">
          <mxGeometry relative="1" as="geometry" />
        </mxCell>
        <mxCell id="VUc-xPDgjk1OxAHQRzHZ-13" value="User Input" style="text;html=1;align=center;verticalAlign=middle;whiteSpace=wrap;rounded=0;" vertex="1" parent="1">
          <mxGeometry x="-1546" y="40" width="60" height="30" as="geometry" />
        </mxCell>
        <mxCell id="VUc-xPDgjk1OxAHQRzHZ-14" value="System Output" style="text;html=1;align=center;verticalAlign=middle;whiteSpace=wrap;rounded=0;" vertex="1" parent="1">
          <mxGeometry x="-1360" y="590" width="60" height="30" as="geometry" />
        </mxCell>
        <mxCell id="VUc-xPDgjk1OxAHQRzHZ-15" value="Context: Soy un asistente que decide que herramienta debo usar para resolver mi tarea, si lo que pide el usuario no esta dentro de mis herramientas me despido amablemente" style="text;html=1;align=center;verticalAlign=middle;whiteSpace=wrap;rounded=0;" vertex="1" parent="1">
          <mxGeometry x="-1734" y="100" width="436" height="30" as="geometry" />
        </mxCell>
        <mxCell id="VUc-xPDgjk1OxAHQRzHZ-45" style="edgeStyle=orthogonalEdgeStyle;rounded=0;orthogonalLoop=1;jettySize=auto;html=1;exitX=1;exitY=0.5;exitDx=0;exitDy=0;" edge="1" parent="1" source="VUc-xPDgjk1OxAHQRzHZ-16" target="VUc-xPDgjk1OxAHQRzHZ-9">
          <mxGeometry relative="1" as="geometry" />
        </mxCell>
        <mxCell id="VUc-xPDgjk1OxAHQRzHZ-16" value="Tool" style="ellipse;whiteSpace=wrap;html=1;" vertex="1" parent="1">
          <mxGeometry x="-1651" y="280" width="270" height="230" as="geometry" />
        </mxCell>
        <mxCell id="VUc-xPDgjk1OxAHQRzHZ-17" value="Tool de Audio a Texto" style="rounded=0;whiteSpace=wrap;html=1;" vertex="1" parent="1">
          <mxGeometry x="-1576" y="430" width="120" height="60" as="geometry" />
        </mxCell>
        <mxCell id="VUc-xPDgjk1OxAHQRzHZ-43" value="&lt;h1 style=&quot;margin-top: 0px;&quot;&gt;TAREAS:&lt;/h1&gt;&lt;div&gt;Tengo que realizar un orquestador que sea capaz de conectar los mÃºltiples servicios esperados&lt;br&gt;PRIMERO:&lt;/div&gt;&lt;div&gt;&amp;nbsp;- ObtenciÃ³n y limpieza de datos del usuario ingresados por voz&lt;/div&gt;&lt;div&gt;&amp;nbsp;- Generador de PDF en base al contenido proporcionado por el usuario&lt;/div&gt;&lt;div&gt;&amp;nbsp;-&amp;nbsp;&lt;/div&gt;" style="text;html=1;whiteSpace=wrap;overflow=hidden;rounded=0;" vertex="1" parent="1">
          <mxGeometry x="-2650" y="75" width="610" height="120" as="geometry" />
        </mxCell>
      </root>
    </mxGraphModel>
  </diagram>
</mxfile>
